<?xml version="1.0" encoding="UTF-8" standalone="no"?>
<svg
   xmlns:dc="http://purl.org/dc/elements/1.1/"
   xmlns:cc="http://creativecommons.org/ns#"
   xmlns:rdf="http://www.w3.org/1999/02/22-rdf-syntax-ns#"
   xmlns:svg="http://www.w3.org/2000/svg"
   xmlns="http://www.w3.org/2000/svg"
   xmlns:sodipodi="http://sodipodi.sourceforge.net/DTD/sodipodi-0.dtd"
   xmlns:inkscape="http://www.inkscape.org/namespaces/inkscape"
   inkscape:version="1.0 (4035a4fb49, 2020-05-01)"
   sodipodi:docname="logo.svg"
   id="svg3"
   version="1.1"
   viewBox="0 0 36.092 36.087"
   height="36.087"
   width="36.092">
  <metadata
     id="metadata9">
    <rdf:RDF>
      <cc:Work
         rdf:about="">
        <dc:format>image/svg+xml</dc:format>
        <dc:type
           rdf:resource="http://purl.org/dc/dcmitype/StillImage" />
      </cc:Work>
    </rdf:RDF>
  </metadata>
  <defs
     id="defs7" />
  <sodipodi:namedview
     inkscape:current-layer="svg3"
     inkscape:window-maximized="1"
     inkscape:window-y="-8"
     inkscape:window-x="-8"
     inkscape:cy="15.28315"
     inkscape:cx="26.640294"
     inkscape:zoom="7.7036048"
     showgrid="false"
     id="namedview5"
     inkscape:window-height="705"
     inkscape:window-width="1366"
     inkscape:pageshadow="2"
     inkscape:pageopacity="0"
     guidetolerance="10"
     gridtolerance="10"
     objecttolerance="10"
     borderopacity="1"
     bordercolor="#666666"
     pagecolor="#ffffff" />
  <path
     transform="translate(17312 7320)"
     fill="#e01705"
     d="M-17293.957-7283.912a17.94,17.94,0,0,1-7.023-1.417,17.962,17.962,0,0,1-5.734-3.867,17.949,17.949,0,0,1-3.867-5.735,17.924,17.924,0,0,1-1.418-7.024,17.928,17.928,0,0,1,1.418-7.024,17.931,17.931,0,0,1,3.867-5.735,17.952,17.952,0,0,1,5.734-3.867,17.932,17.932,0,0,1,7.023-1.418,17.948,17.948,0,0,1,7.025,1.418,17.965,17.965,0,0,1,5.736,3.867,17.943,17.943,0,0,1,3.867,5.735,17.919,17.919,0,0,1,1.42,7.024,17.915,17.915,0,0,1-1.42,7.024,17.961,17.961,0,0,1-3.867,5.735,18,18,0,0,1-5.736,3.867A17.957,17.957,0,0,1-17293.957-7283.912Zm-5.848-21.671-.8.8-.691.691-2.529,2.533-.689.687-2.529,2.533,2.529,2.529.689.69,2.529,2.533.691.691.83.83h5.061l-.83-.83-2.527-2.533-.691-.691-2.533-2.528-.691-.691.691-.691,2.533-2.529.691-.69,2.527-2.533.8-.8h-5.061Zm6.93,0-1.49,1.49-2.533,2.533-.691.687-2.527,2.533,2.527,2.529,2.533-2.529.691-.691,2.533-2.529,4.02-4.023Zm-.309-7.256,0,.009,7.26,7.264-7.238,7.239h5.057l4.715-4.71,2.529-2.529-2.529-2.533-4.74-4.74Z"
     data-name="Exclusion 5"
     id="Exclusion_5" />
  <rect
     y="6.700603"
     x="5.0124149"
     height="22.947271"
     width="26.287663"
     id="rect836"
     style="opacity:0.998;fill:#e01705;fill-opacity:1;stroke-width:1" />
  <text
     transform="scale(1.0383625,0.96305482)"
     id="text840"
     y="26.453346"
     x="1.7136519"
     style="font-style:normal;font-variant:normal;font-weight:normal;font-stretch:normal;font-size:25.4387px;line-height:1.25;font-family:Algerian;-inkscape-font-specification:Algerian;fill:#ffffff;fill-opacity:1;stroke:none;stroke-width:1;"
     xml:space="preserve"><tspan
       style="stroke-width:1;fill:#ffffff;"
       y="26.453346"
       x="1.7136519"
       id="tspan838"
       sodipodi:role="line">CB</tspan></text>
</svg>
